<svg width="24" height="24" viewBox="0 0 24 24" fill="none" xmlns="http://www.w3.org/2000/svg">
<path fill-rule="evenodd" clip-rule="evenodd" d="M9.67772 1.55272C8.08991 1.85281 5.39044 2.35941 3.67891 2.67847C1.96737 2.99761 0.477112 3.31134 0.367184 3.37576C0.25733 3.44024 0.130755 3.57327 0.0859893 3.6715C-0.0286631 3.92322 -0.0286631 20.5596 0.0859893 20.8113C0.130755 20.9095 0.25733 21.042 0.367184 21.1058C0.477112 21.1695 3.32325 21.7369 6.69189 22.3667C12.2222 23.4005 12.8395 23.5022 13.0505 23.4149C13.4463 23.251 13.502 23.0384 13.502 21.6933V20.4898H18.4475C22.122 20.4898 23.4435 20.4668 23.5896 20.4002C24.0177 20.2051 23.9999 20.5586 23.9999 12.2414C23.9999 3.9242 24.0177 4.27768 23.5896 4.08264C23.4435 4.01606 22.122 3.99304 18.4475 3.99304H13.502V2.7968C13.502 2.02902 13.4699 1.53015 13.4124 1.40395C13.3106 1.18049 12.9924 0.990402 12.7371 1.00038C12.6423 1.00405 11.2655 1.25263 9.67772 1.55272ZM12.0023 12.2428V21.8424L11.8335 21.8026C11.7407 21.7808 10.585 21.5622 9.2653 21.317C7.94556 21.0717 5.68626 20.6503 4.24452 20.3805C2.80285 20.1107 1.59657 19.8899 1.5638 19.8899C1.5311 19.8899 1.50433 16.4481 1.50433 12.2414C1.50433 8.03474 1.52968 4.59299 1.56057 4.59314C1.62454 4.59344 5.7347 3.82619 9.41527 3.12703C10.7763 2.86848 11.9151 2.65387 11.946 2.65013C11.9769 2.64638 12.0023 6.96312 12.0023 12.2428ZM22.5002 12.2414V18.9901H18.0011H13.502V18.2402V17.4904H14.7055C15.6004 17.4904 15.9619 17.463 16.1156 17.3835C16.6146 17.1254 16.6146 16.3556 16.1156 16.0975C15.9619 16.018 15.6004 15.9907 14.7055 15.9907H13.502V15.2408V14.491H14.7055C15.6004 14.491 15.9619 14.4636 16.1156 14.3841C16.6146 14.126 16.6146 13.3562 16.1156 13.0981C15.9619 13.0186 15.6004 12.9913 14.7055 12.9913H13.502V12.2414V11.4916H14.6982C16.0028 11.4916 16.2206 11.442 16.3945 11.1058C16.5953 10.7176 16.4561 10.2478 16.0911 10.0815C15.9649 10.0239 15.466 9.99185 14.6982 9.99185H13.502V9.242V8.49215H14.6982C16.0028 8.49215 16.2206 8.44258 16.3945 8.10635C16.5953 7.71815 16.4561 7.24837 16.0911 7.08205C15.9649 7.02454 15.466 6.99244 14.6982 6.99244H13.502V6.24259V5.49274H18.0011H22.5002V12.2414ZM18.3843 7.09712C17.8817 7.37562 17.8982 8.16874 18.4114 8.40254C18.6727 8.52162 20.3288 8.52162 20.5902 8.40254C20.8051 8.30461 21.0005 7.9902 21.0005 7.74229C21.0005 7.49439 20.8051 7.17998 20.5902 7.08205C20.3126 6.95555 18.6188 6.9671 18.3843 7.09712ZM9.4032 7.83865C9.31412 7.88874 8.72788 8.58775 8.10048 9.39197C7.47308 10.1962 6.94789 10.8542 6.93341 10.8542C6.91894 10.8542 6.4826 10.3651 5.96371 9.76727C5.44481 9.16949 4.94623 8.63927 4.85572 8.58895C4.23447 8.24357 3.50846 8.94266 3.84147 9.56563C3.88961 9.65569 4.39659 10.2597 4.96805 10.9079L6.0072 12.0863L4.9673 13.4199C4.39539 14.1533 3.88834 14.8271 3.84065 14.9172C3.51064 15.5402 4.23695 16.2413 4.8528 15.8943C4.94166 15.8442 5.40836 15.2971 5.88984 14.6784C6.3714 14.0598 6.82611 13.4911 6.90042 13.4146C7.03134 13.2799 7.06876 13.3138 8.10221 14.5019C8.68882 15.1764 9.25803 15.7871 9.36706 15.8591C9.98231 16.2651 10.7628 15.5672 10.4166 14.9204C10.3452 14.787 8.75435 12.9223 8.1238 12.2329L7.94459 12.0368L9.1364 10.5072C9.792 9.66589 10.3675 8.90434 10.4154 8.81481C10.7475 8.19423 10.0196 7.49222 9.4032 7.83865ZM18.3843 10.0965C17.8817 10.375 17.8982 11.1681 18.4114 11.4019C18.6727 11.521 20.3288 11.521 20.5902 11.4019C20.8051 11.304 21.0005 10.9896 21.0005 10.7417C21.0005 10.4938 20.8051 10.1794 20.5902 10.0815C20.3126 9.95496 18.6188 9.96651 18.3843 10.0965ZM18.3843 13.0959C17.8817 13.3744 17.8982 14.1676 18.4114 14.4014C18.6727 14.5204 20.3288 14.5204 20.5902 14.4014C20.8051 14.3034 21.0005 13.989 21.0005 13.7411C21.0005 13.4932 20.8051 13.1788 20.5902 13.0809C20.3126 12.9544 18.6188 12.9659 18.3843 13.0959ZM18.3843 16.0953C18.0294 16.292 17.9112 16.724 18.1079 17.1046C18.2726 17.423 18.5159 17.4904 19.5008 17.4904C20.4857 17.4904 20.729 17.423 20.8936 17.1046C21.0944 16.7164 20.9552 16.2466 20.5902 16.0803C20.3126 15.9538 18.6188 15.9653 18.3843 16.0953Z" fill="white"/>
</svg>
