<svg width="49" height="51" viewBox="0 0 49 51" fill="none" xmlns="http://www.w3.org/2000/svg">
<path d="M30.3704 5.44624C22.6064 3.93132 5.94229 5.219 1.39752 22.4891C0.32503 26.5642 1.17028 38.2821 7.07848 42.3724L21.281 28.7381L11.6233 28.17L34.3472 7.15047" stroke="#7BD8F1" stroke-width="2"/>
<path d="M26.1987 1L30.1754 5.54477L26.1987 8.95335" stroke="#7BD8F1" stroke-width="2"/>
<path d="M14.8372 40.7665L39.2654 24.8598L25.6311 23.7236L37.5611 8.95312C42.674 12.9298 51.309 23.8372 44.9463 35.6536C38.5837 47.47 30.1758 49.2879 26.7673 49.856C23.9611 50.3237 16.6552 49.856 10.2925 45.3113M10.2925 45.3113L10.8606 49.856M10.2925 45.3113L14.8372 44.1751" stroke="#7BD8F1" stroke-width="2"/>
</svg>
